<?xml version="1.0" encoding="UTF-8"?>
<svg version="1.1" xmlns="http://www.w3.org/2000/svg" width="500" height="500">
<path d="M0 0 C13.76465459 10.01526401 26.10850693 22.42416763 34.93359375 37.00390625 C35.37010254 37.7088623 35.80661133 38.41381836 36.25634766 39.14013672 C43.50653144 50.90699243 49.55550727 62.86964681 53.93359375 76.00390625 C54.59359375 76.00390625 55.25359375 76.00390625 55.93359375 76.00390625 C57.26692708 77.33723958 58.60026042 78.67057292 59.93359375 80.00390625 C60.79984375 80.56078125 61.66609375 81.11765625 62.55859375 81.69140625 C78.54381915 92.16031961 91.71156374 112.17936642 95.93359375 131.00390625 C100.55817754 154.83376794 97.0424824 179.84057328 83.37890625 200.3359375 C75.15618986 211.45744562 63.84868682 220.47388933 49.93359375 223.00390625 C40.09177949 223.84443386 30.75436777 222.40272135 22.93359375 216.00390625 C17.67170317 210.81790832 14.97449396 206.19060683 14.55859375 198.69140625 C14.66342641 193.51966156 16.56759755 189.52002308 18.93359375 185.00390625 C19.60118107 183.67103364 20.26812639 182.33783856 20.93359375 181.00390625 C21.59359375 181.00390625 22.25359375 181.00390625 22.93359375 181.00390625 C23.36671875 180.13765625 23.36671875 180.13765625 23.80859375 179.25390625 C24.85026042 177.17057292 25.89192708 175.08723958 26.93359375 173.00390625 C26.23234375 172.92140625 25.53109375 172.83890625 24.80859375 172.75390625 C17.8707398 170.94403131 13.19643657 165.71931763 8.74609375 160.37890625 C3.00042038 149.68006618 4.70397881 136.09348191 4.80859375 124.31640625 C4.8186426 122.34310349 4.82776508 120.36979579 4.8359375 118.39648438 C4.85780241 113.5988346 4.89222759 108.80142589 4.93359375 104.00390625 C3.67224609 104.31457031 2.41089844 104.62523437 1.11132812 104.9453125 C0.40182007 105.12006104 -0.30768799 105.29480957 -1.03869629 105.47485352 C-24.73346029 111.65708861 -45.58334492 130.74026187 -58.04150391 151.22900391 C-63.20135708 160.16471915 -67.070113 169.56338247 -70.19140625 179.37890625 C-73.95816809 191.21135563 -78.72912267 201.75932466 -89.75390625 208.37890625 C-96.47419151 211.67564996 -104.02012739 212.28822919 -111.19140625 209.87890625 C-119.98100252 206.06120282 -125.32217695 200.26922388 -129.12890625 191.578125 C-139.998787 161.7312441 -127.91675946 119.41301525 -115.37890625 91.87890625 C-114.58692757 90.2344925 -113.79451682 88.59027557 -112.99560547 86.94921875 C-111.92621689 84.7104147 -110.90454991 82.45234693 -109.8828125 80.19140625 C-99.63033116 57.72819867 -86.16465945 37.27996529 -69.1875 19.30078125 C-67.01655939 17.00673179 -67.01655939 17.00673179 -65.0078125 14.4140625 C-48.90801118 -5.5730148 -22.33088076 -14.53640773 0 0 Z " fill="#685FE8" transform="translate(267.06640625,141.99609375)"/>
<path d="M0 0 C13.76465459 10.01526401 26.10850693 22.42416763 34.93359375 37.00390625 C35.37010254 37.7088623 35.80661133 38.41381836 36.25634766 39.14013672 C43.50653144 50.90699243 49.55550727 62.86964681 53.93359375 76.00390625 C54.59359375 76.00390625 55.25359375 76.00390625 55.93359375 76.00390625 C55.26692708 77.33723958 54.60026042 78.67057292 53.93359375 80.00390625 C54.66577458 81.91722694 55.40097552 83.82947189 56.15478516 85.734375 C57.42192841 89.4269655 57.77301451 93.13167525 58.12109375 97.00390625 C58.19932373 97.83059814 58.27755371 98.65729004 58.3581543 99.5090332 C59.66995748 114.42525112 61.43004855 134.63501 51.28515625 147.015625 C50.43050781 147.84513672 50.43050781 147.84513672 49.55859375 148.69140625 C48.99398437 149.25214844 48.429375 149.81289063 47.84765625 150.390625 C42.5243365 154.87742307 38.70739225 155.47740142 31.875 155.29296875 C25.86100618 154.70195209 21.27650157 152.23252703 16.93359375 148.00390625 C12.4859774 141.79734558 10.75319185 137.05905339 10.74609375 129.37890625 C10.73384766 128.70472656 10.72160156 128.03054688 10.70898438 127.3359375 C10.69874221 123.73752479 10.97887751 120.58065193 11.921875 117.10546875 C13.54863669 110.34703318 13.30558237 103.36229747 13.30419922 96.45068359 C13.30853486 94.03669604 13.34482928 91.62459845 13.3828125 89.2109375 C13.52887801 69.12410611 8.23904626 49.79871142 -3.06640625 33.00390625 C-3.64390625 32.09640625 -4.22140625 31.18890625 -4.81640625 30.25390625 C-10.14449736 24.92581514 -15.61106424 21.63782311 -23.25390625 21.37890625 C-30.83449952 21.83393548 -34.67052308 24.34841278 -39.87890625 29.69140625 C-47.62768007 38.93994274 -52.97923489 49.81038318 -58.42578125 60.50390625 C-58.81516876 61.26728302 -59.20455627 62.03065979 -59.60574341 62.81716919 C-61.57704574 66.68764751 -63.53436636 70.56430281 -65.47021484 74.45263672 C-71.71538006 86.9002825 -78.7352085 97.16525886 -88.87890625 106.81640625 C-96.32976338 114.10048724 -103.02344623 121.51973455 -109.06640625 130.00390625 C-109.49356934 130.5973584 -109.92073242 131.19081055 -110.36083984 131.80224609 C-118.06877867 142.6105849 -125.1353789 154.2477225 -129.06640625 167.00390625 C-129.39640625 167.00390625 -129.72640625 167.00390625 -130.06640625 167.00390625 C-130.18726843 160.57135224 -129.88992489 154.3861757 -129.06640625 148.00390625 C-129.39640625 148.00390625 -129.72640625 148.00390625 -130.06640625 148.00390625 C-130.50051747 141.26071203 -128.88501578 135.20427623 -127.25390625 128.69140625 C-126.99287109 127.61439453 -126.73183594 126.53738281 -126.46289062 125.42773438 C-124.26117846 116.45235958 -121.99018337 107.71761625 -118.0859375 99.32421875 C-117.01954147 96.89724849 -116.16690931 94.45170163 -115.31640625 91.94140625 C-112.58084453 84.29886417 -108.84453367 77.17240146 -105.06640625 70.00390625 C-104.7194873 69.34197266 -104.37256836 68.68003906 -104.01513672 67.99804688 C-94.62206356 50.23755576 -82.72838876 34.10912104 -69.14453125 19.328125 C-67.71971689 17.73458262 -66.34623641 16.09407336 -65.01953125 14.41796875 C-48.87329409 -5.53878038 -22.36413609 -14.55805547 0 0 Z " fill="#068BAB" transform="translate(267.06640625,141.99609375)"/>
<path d="M0 0 C9.94373794 4.78064324 13.46725415 15.78326018 17.375 25.375 C18.06939155 28.29144451 17.83970989 30.14498638 17 33 C16.34 33 15.68 33 15 33 C15.15146484 33.73637695 15.30292969 34.47275391 15.45898438 35.23144531 C16.14336105 38.57015058 16.82174375 41.91004625 17.5 45.25 C17.85771484 46.98830078 17.85771484 46.98830078 18.22265625 48.76171875 C18.44824219 49.87675781 18.67382812 50.99179688 18.90625 52.140625 C19.11572266 53.16704102 19.32519531 54.19345703 19.54101562 55.25097656 C20 58 20 58 20 62 C21.32 62 22.64 62 24 62 C24 67.61 24 73.22 24 79 C23.67 79 23.34 79 23 79 C22.67 74.71 22.34 70.42 22 66 C3.821383 69.84547667 -11.41315264 79.79453802 -24.5234375 92.62890625 C-27 95 -27 95 -29 96 C-28.34 94.35 -27.68 92.7 -27 91 C-43.12608544 101.0788034 -51.38540581 115.96485819 -59.73876953 132.58520508 C-64.58851188 141.99495202 -69.99066744 150.65784692 -80 155 C-85.8922069 155.91616632 -90.9872023 155.38072403 -96 152 C-101.67615127 147.26987394 -104.98750692 141.52455505 -105.70703125 134.15234375 C-106.22815504 121.25821705 -103.8904317 113.11893306 -96 103 C-95.23816406 101.96359375 -94.47632813 100.9271875 -93.69140625 99.859375 C-90.09716175 95.13739507 -90.09716175 95.13739507 -88 93 C-87.34 93 -86.68 93 -86 93 C-85.72414062 92.40832031 -85.44828125 91.81664062 -85.1640625 91.20703125 C-77.68086533 77.01909031 -59.59149554 66.53652036 -46.26953125 58.53515625 C-40.83447527 54.85877587 -37.89936641 50.37075263 -36.58203125 43.96875 C-36.45183594 43.2571875 -36.32164062 42.545625 -36.1875 41.8125 C-35.16949703 36.89629055 -33.10091279 32.8118009 -30.765625 28.390625 C-29.47654746 25.91513981 -28.27088837 23.45544083 -27.109375 20.921875 C-21.59276295 9.04320886 -14.76415121 -2.03199991 0 0 Z " fill="#0593B1" transform="translate(250,180)"/>
<path d="M0 0 C13.11221348 8.89259159 20.37028375 20.71803616 25.60546875 35.43359375 C26.56487085 39.06166396 26.56487085 39.06166396 29 40 C29.33 39.01 29.66 38.02 30 37 C36.9627342 59.19371526 33.46797115 79.33142992 23.625 100.3125 C15.984154 114.81112392 4.54516473 123.54397151 -10.5625 129.375 C-20.4636697 131.17521267 -29.37043975 130.03130167 -38.25 125.25 C-44.13447984 120.43542558 -48.30559273 115.7180099 -49.25 107.94140625 C-49.59040673 101.80344734 -47.81371163 97.37069774 -45 92 C-44.33241268 90.66712739 -43.66546736 89.33393231 -43 88 C-42.34 88 -41.68 88 -41 88 C-40.71125 87.4225 -40.4225 86.845 -40.125 86.25 C-39.08333333 84.16666667 -38.04166667 82.08333333 -37 80 C-38.65 79.67 -40.3 79.34 -42 79 C-38.97866471 77.99288824 -36.65436722 77.97500419 -33.50366211 78.06640625 C-22.02454895 78.45176331 -22.02454895 78.45176331 -12.046875 73.37109375 C-7.43880625 68.57908948 -4.99783153 63.27754648 -3 57 C-2.65702881 55.95908203 -2.31405762 54.91816406 -1.96069336 53.84570312 C-0.94364177 49.77439523 -0.74399336 46.0392973 -0.8046875 41.87890625 C-0.80893234 40.76176491 -0.80893234 40.76176491 -0.81326294 39.62205505 C-0.82436083 37.26869899 -0.8494449 34.91573891 -0.875 32.5625 C-0.88504328 30.95638575 -0.89416676 29.35026546 -0.90234375 27.74414062 C-0.92426593 23.82927704 -0.95872239 19.9147054 -1 16 C12.20044121 22.46943909 19.30089254 36.03246564 25 49 C25.69140625 51.41015625 25.69140625 51.41015625 26 53 C25.38542426 40.70848529 19.75723684 27.48313376 10.78515625 18.875 C9 17 9 17 9 14 C8.13375 13.62875 8.13375 13.62875 7.25 13.25 C4.51630719 11.73128177 2.90999004 10.50274557 1 8 C0.37373548 5.29826383 0.18564958 2.78474374 0 0 Z " fill="#0591AF" transform="translate(331,235)"/>
<path d="M0 0 C31.37277539 18.45764952 51.29167442 54.03317431 61.078125 88.27734375 C63.09937055 96.44501329 63.09937055 96.44501329 61.8125 101.0625 C57.09871566 93.61691124 53.27599333 85.91979118 49.5625 77.9375 C42.72095961 63.5022899 35.31447751 50.19125441 24.8125 38.0625 C24.09320313 37.21042969 23.37390625 36.35835937 22.6328125 35.48046875 C13.9209033 25.4271064 3.11111018 16.13270997 -10.703125 14.82421875 C-21.82208851 14.52241831 -27.48176201 18.64052687 -35.45703125 26.17578125 C-49.46157992 40.9817347 -58.08439929 61.34502133 -66.81640625 79.5390625 C-71.77867039 89.79162402 -76.57013668 99.4816757 -84.1875 108.0625 C-84.69539063 108.65289062 -85.20328125 109.24328125 -85.7265625 109.8515625 C-89.27656855 113.40156855 -93.14676594 113.84344166 -97.91796875 114.3125 C-100.1875 114.0625 -100.1875 114.0625 -101.95703125 112.8046875 C-104.27920377 109.51678608 -103.76915161 105.84821127 -103.1875 102.0625 C-100.24569106 92.8188401 -95.97257899 84.08546746 -91.625 75.4375 C-91.3226947 74.83431946 -91.0203894 74.23113892 -90.70892334 73.60968018 C-83.30237719 58.88243416 -75.11558062 44.49485083 -64.1875 32.0625 C-63.44757813 31.21429688 -62.70765625 30.36609375 -61.9453125 29.4921875 C-59.72310471 26.98565683 -57.46711236 24.51682718 -55.1875 22.0625 C-54.62546875 21.44632813 -54.0634375 20.83015625 -53.484375 20.1953125 C-40.78928336 6.82232762 -19.16050484 -9.02036754 0 0 Z " fill="#4D8295" transform="translate(258.1875,140.9375)"/>
<path d="M0 0 C3.44124175 -0.08603104 5.44916299 0.49855578 8.00390625 2.82421875 C15.02548584 10.67186653 20.1096405 18.7164094 24.625 28.1875 C25.10195313 29.15236328 25.57890625 30.11722656 26.0703125 31.11132812 C30.77929011 40.9282384 33.58971871 50.69197047 33.5 61.625 C33.49500488 62.4404126 33.49000977 63.2558252 33.48486328 64.09594727 C33.29786794 70.55889331 32.21399273 75.88614424 28 81 C23.13954222 85.49592344 17.96946403 86.36664067 11.56640625 86.2734375 C6.79401664 85.76496372 3.63418972 83.8676454 0.49609375 80.28125 C-3.47256495 74.94447818 -4.19366546 70.60389186 -4.1875 64 C-4.18741943 63.17693359 -4.18733887 62.35386719 -4.18725586 61.50585938 C-4.10297435 51.83211601 -3.28203178 42.21619751 -2.5078125 32.578125 C-1.98735977 26.05637911 -1.61911106 19.53434896 -1.34204102 12.99804688 C-1.14172558 8.59824323 -0.68790325 4.34345525 0 0 Z " fill="#4B8396" transform="translate(286,207)"/>
<path d="M0 0 C0.33 0 0.66 0 1 0 C1.495 4.455 1.495 4.455 2 9 C3.32 9 4.64 9 6 9 C6 14.61 6 20.22 6 26 C5.67 26 5.34 26 5 26 C4.67 21.71 4.34 17.42 4 13 C-14.178617 16.84547667 -29.41315264 26.79453802 -42.5234375 39.62890625 C-45 42 -45 42 -47 43 C-46.34 41.35 -45.68 39.7 -45 38 C-61.12608544 48.0788034 -69.38540581 62.96485819 -77.73876953 79.58520508 C-82.58851188 88.99495202 -87.99066744 97.65784692 -98 102 C-103.8922069 102.91616632 -108.9872023 102.38072403 -114 99 C-119.67615127 94.26987394 -122.98750692 88.52455505 -123.70703125 81.15234375 C-124.22698463 68.28717655 -121.91722084 60.0825884 -114 50 C-113.21496094 48.96359375 -112.42992187 47.9271875 -111.62109375 46.859375 C-109.79708636 44.5230793 -107.93681157 42.24290168 -106 40 C-105.67 40.66 -105.34 41.32 -105 42 C-105.91888613 44.39931378 -106.91387191 46.67552133 -108 49 C-108.87649 50.91598575 -109.75141647 52.83268732 -110.625 54.75 C-111.05039063 55.67296875 -111.47578125 56.5959375 -111.9140625 57.546875 C-113.90102435 62.03540753 -114.21468586 65.91196258 -114.25 70.75 C-114.270625 71.4409375 -114.29125 72.131875 -114.3125 72.84375 C-114.35094939 77.95751857 -113.35557255 81.44894236 -111 86 C-109.23996634 88.20235844 -109.23996634 88.20235844 -107.046875 88.1171875 C-105.90992188 87.99730469 -105.90992188 87.99730469 -104.75 87.875 C-104.00234375 87.81054688 -103.2546875 87.74609375 -102.484375 87.6796875 C-96.66631525 86.08795417 -93.97276342 83.32273893 -90.921875 78.2890625 C-89.8534043 76.40734555 -88.79662237 74.51895616 -87.75 72.625 C-70.89814117 43.21394045 -45.63341021 14.42131834 -11.88671875 4.37060547 C-7.95974348 3.36575092 -4.00583566 2.60944568 0 2 C0 1.34 0 0.68 0 0 Z " fill="#3576CC" transform="translate(268,233)"/>
<path d="M0 0 C14.01916883 6.87069147 21.62971972 22.00896289 27.17578125 35.95703125 C29.46848295 44.42155553 29.16045526 54.23381685 25 62 C21.903194 66.46723164 19.33456629 69.42489129 14 71 C11.28201479 71.24348618 8.71605836 71.37987295 6 71.375 C5.2467041 71.37628906 4.4934082 71.37757813 3.71728516 71.37890625 C-1.07217185 71.2895545 -5.06614705 70.59503292 -9.625 69 C-17.42961915 66.27131736 -26.05626001 65.107628 -33.94921875 68.12890625 C-36.08767962 69.30724183 -38.05675444 70.52545053 -40 72 C-38.66666667 69.33333333 -37.33333333 66.66666667 -36 64 C-37.65 63.67 -39.3 63.34 -41 63 C-37.97866471 61.99288824 -35.65436722 61.97500419 -32.50366211 62.06640625 C-21.02454895 62.45176331 -21.02454895 62.45176331 -11.046875 57.37109375 C-6.43880625 52.57908948 -3.99783153 47.27754648 -2 41 C-1.65702881 39.95908203 -1.31405762 38.91816406 -0.96069336 37.84570312 C0.05635823 33.77439523 0.25600664 30.0392973 0.1953125 25.87890625 C0.19106766 24.76176491 0.19106766 24.76176491 0.18673706 23.62205505 C0.17563917 21.26869899 0.1505551 18.91573891 0.125 16.5625 C0.11495672 14.95638575 0.10583324 13.35026546 0.09765625 11.74414062 C0.07573407 7.82927704 0.04127761 3.9147054 0 0 Z " fill="#011342" transform="translate(330,251)"/>
<path d="M0 0 C-1.33131665 4.93026058 -3.35845291 7.98143768 -6.625 11.875 C-15.40566695 22.76858481 -20.6937758 35.7232573 -25.359375 48.8125 C-29.9228622 61.50829789 -34.73923046 73.05955448 -47.00390625 80.16015625 C-53.37820675 82.92879182 -60.54868561 83.04131533 -67.125 80.875 C-75.91459627 77.05729657 -81.2557707 71.26531763 -85.0625 62.57421875 C-90.7497423 46.95799926 -88.66493217 28.81592753 -85 13 C-84.67 13 -84.34 13 -84 13 C-84.03552979 13.72590332 -84.07105957 14.45180664 -84.10766602 15.19970703 C-84.2658637 18.50786091 -84.41427112 21.81638508 -84.5625 25.125 C-84.61857422 26.26710938 -84.67464844 27.40921875 -84.73242188 28.5859375 C-84.78076172 29.69453125 -84.82910156 30.803125 -84.87890625 31.9453125 C-84.9260376 32.96125488 -84.97316895 33.97719727 -85.02172852 35.02392578 C-85.07414453 38.52449011 -85.07414453 38.52449011 -84 44 C-82.35 39.05 -80.7 34.1 -79 29 C-78.67 29 -78.34 29 -78 29 C-77.98582031 30.25554687 -77.97164062 31.51109375 -77.95703125 32.8046875 C-77.84665774 46.22739445 -77.84665774 46.22739445 -72 58 C-67.19661633 62.45426556 -61.97878646 63.42302995 -55.62890625 63.33984375 C-49.07260406 62.492298 -44.72130166 58.12512864 -40.6328125 53.25024414 C-37.24512517 48.58153688 -34.75484518 43.36974295 -32.125 38.25 C-12.46997691 0 -12.46997691 0 0 0 Z " fill="#6259DD" transform="translate(223,271)"/>
<path d="M0 0 C9.94373794 4.78064324 13.46725415 15.78326018 17.375 25.375 C18.07565718 28.31776016 17.67153029 30.09003542 17 33 C15.20755859 33.48919922 15.20755859 33.48919922 13.37890625 33.98828125 C11.77340247 34.42956007 10.1679357 34.87097355 8.5625 35.3125 C7.3878418 35.63250977 7.3878418 35.63250977 6.18945312 35.95898438 C-3.45464994 38.61805806 -12.52958751 41.96410856 -21.6875 46 C-22.69361328 46.43828125 -23.69972656 46.8765625 -24.73632812 47.328125 C-29.55519814 49.43737331 -34.32850053 51.58068852 -39 54 C-37.74935985 44.74526293 -35.08803325 36.56202708 -30.73046875 28.3203125 C-29.45414715 25.87138844 -28.26265432 23.43666612 -27.11328125 20.9296875 C-21.59511542 9.04914351 -14.76849846 -2.03259822 0 0 Z " fill="#001443" transform="translate(250,180)"/>
<path d="M0 0 C3.4150573 1.96059452 6.48435901 3.89833528 9.50390625 6.4375 C9.50390625 7.0975 9.50390625 7.7575 9.50390625 8.4375 C10.49390625 8.7675 11.48390625 9.0975 12.50390625 9.4375 C15.36085527 12.55417166 17.13448057 15.44334176 18.50390625 19.4375 C12.85157552 17.58265749 8.40556216 13.97652885 3.65039062 10.51367188 C-5.13605816 4.28328092 -12.67303024 2.33818037 -23.49609375 3.4375 C-34.94434296 5.67626873 -43.87989653 15.4153147 -50.24609375 24.6875 C-59.52623078 38.86265437 -66.6550266 54.7290022 -74.20703125 69.87109375 C-82.35676348 86.03441339 -82.35676348 86.03441339 -89.49609375 91.4375 C-92.28549527 92.22346396 -93.60677186 92.05224934 -96.49609375 91.4375 C-98.07858457 82.29421971 -94.02084791 75.4419797 -89.75390625 67.72363281 C-88.44133214 65.33796822 -87.16997325 62.933254 -85.90234375 60.5234375 C-77.38962407 44.49503903 -67.64270924 29.93171601 -55.49609375 16.4375 C-54.77035156 15.61636719 -54.04460937 14.79523438 -53.296875 13.94921875 C-39.1871358 -1.15159271 -19.76732493 -9.67746645 0 0 Z " fill="#F55859" transform="translate(262.49609375,146.5625)"/>
<path d="M0 0 C-0.59337823 3.43158495 -0.77868532 3.84262067 -3.8125 6 C-7.00200108 7.67936996 -10.25614785 8.78525299 -13.6875 9.875 C-41.81936825 18.98569157 -64.29566754 39.19250454 -78 65 C-78.60733466 66.18979445 -79.21155451 67.3811845 -79.8125 68.57421875 C-86.13176848 80.94475102 -86.13176848 80.94475102 -92 84 C-95.3125 84.5 -95.3125 84.5 -98 84 C-100 82 -100 82 -100.3125 78.9375 C-98.72218696 58.89955573 -81.4473236 42.91410384 -67.19238281 30.41503906 C-48.56419618 14.74403801 -25.35747535 -1.92426036 0 0 Z " fill="#8F727D" transform="translate(260,221)"/>
<path d="M0 0 C0.99 0.33 1.98 0.66 3 1 C4.26641732 11.76454718 -2.01407797 21.4062777 -8.2265625 29.7890625 C-16.71572462 40.37246726 -28.16419988 47.68073022 -41.85546875 49.34765625 C-50.67246487 49.6336801 -59.08439132 47.65822529 -66 42 C-71.33553951 36.74141538 -74.02056581 32.12231349 -74.25 24.5 C-74.1192352 20.59667069 -73.86974387 17.50576975 -72 14 C-69.48100464 11.76374902 -66.81453848 9.84581361 -64 8 C-63.96261719 8.72445313 -63.92523438 9.44890625 -63.88671875 10.1953125 C-63.40007808 19.21982051 -63.40007808 19.21982051 -58.38671875 26.43359375 C-50.91579212 32.0807824 -42.08542607 32.14763277 -33 31 C-18.8586487 27.5776956 -11.1244786 19.00754049 -3.8828125 7.20703125 C-2.48763837 4.83060394 -1.17376019 2.48960715 0 0 Z " fill="#5A58D6" transform="translate(356,316)"/>
<path d="M0 0 C2.4375 2.375 2.4375 2.375 3.125 5.3125 C2.24908133 9.21431952 0.62543603 11.1186627 -2.5625 13.375 C-6.28357469 15.08010383 -10.12759988 16.3700978 -14 17.6875 C-42.36521919 27.85248133 -63.33246744 45.28161871 -76.58203125 72.37890625 C-78.38057941 76.03844606 -80.26068208 79.62744081 -82.25 83.1875 C-82.76949219 84.12207031 -83.28898437 85.05664062 -83.82421875 86.01953125 C-86.21454931 89.25856344 -88.76081543 90.86657007 -92.625 91.95703125 C-96.75689659 92.44852701 -99.91786535 92.73329301 -103.5625 90.375 C-105.91213422 86.45894297 -106.00329078 82.85637294 -105.5625 78.375 C-101.51840103 64.09267577 -92.39434773 52.14392248 -82.5625 41.375 C-81.96824219 40.70984375 -81.37398437 40.0446875 -80.76171875 39.359375 C-76.73469804 35.08253911 -72.08624926 31.61038258 -67.41088867 28.08105469 C-63.53731968 25.15468252 -59.84182273 22.10703642 -56.24609375 18.84765625 C-53.15645082 16.14511476 -50.08195484 14.0077981 -46.3671875 12.25390625 C-45.17681885 11.68953857 -45.17681885 11.68953857 -43.96240234 11.11376953 C-43.12918457 10.72560059 -42.2959668 10.33743164 -41.4375 9.9375 C-40.58236816 9.53644043 -39.72723633 9.13538086 -38.84619141 8.72216797 C-33.15708144 6.07201528 -27.46154949 3.52603462 -21.5625 1.375 C-20.81097656 1.07851562 -20.05945313 0.78203125 -19.28515625 0.4765625 C-12.53969927 -2.03712916 -6.70133837 -3.05675083 0 0 Z M-88.5625 52.375 C-91.13486628 55.58717118 -93.41876989 58.86535335 -95.5625 62.375 C-95.96855469 62.99761719 -96.37460938 63.62023437 -96.79296875 64.26171875 C-100.69351032 70.52793174 -102.15042839 77.02589514 -101.5625 84.375 C-99.70379222 86.61093611 -99.70379222 86.61093611 -96.875 86.875 C-92.11927322 86.15715445 -89.74264153 83.9050204 -86.5625 80.375 C-84.16040981 76.6367449 -82.18200776 72.71733609 -80.1875 68.75 C-75.6029163 59.9795206 -71.1111307 51.85390348 -64.5625 44.375 C-63.88316406 43.59769531 -63.20382813 42.82039063 -62.50390625 42.01953125 C-56.32343267 35.4308062 -49.06311604 30.33055522 -41.5625 25.375 C-40.94536133 24.96685059 -40.32822266 24.55870117 -39.69238281 24.13818359 C-31.96637085 19.10237141 -24.52525048 15.31754268 -15.7421875 12.4296875 C-8.03846556 9.96292056 -8.03846556 9.96292056 -1.5625 5.375 C-1.5625 4.385 -1.5625 3.395 -1.5625 2.375 C-34.78749581 -0.74526048 -67.92546436 29.46410067 -88.5625 52.375 Z " fill="#4B8396" transform="translate(261.5625,218.625)"/>
<path d="M0 0 C0.28964714 5.59984478 0.25675521 9.21664078 -3 14 C-7.8181829 19.21021353 -13.74799579 22.84770618 -19.71289062 26.59082031 C-25.13836322 30.01881184 -30.11203541 33.83862474 -35 38 C-35.804375 38.6703125 -36.60875 39.340625 -37.4375 40.03125 C-41.45569151 43.46786116 -44.92143731 46.76325094 -47.734375 51.26171875 C-49 53 -49 53 -51.3671875 55.3359375 C-62.52017282 66.62130247 -69.57270277 81.98568764 -74 97 C-74.33 97 -74.66 97 -75 97 C-76.46880562 78.19112808 -63.29678 60.99735704 -52 47 C-51.19304687 45.989375 -50.38609375 44.97875 -49.5546875 43.9375 C-38.21374696 29.99382652 -25.58018153 17.73561846 -10.8984375 7.36230469 C-8.08237401 5.34151838 -5.33473126 3.23204012 -2.58398438 1.12353516 C-1 0 -1 0 0 0 Z " fill="#8056F8" transform="translate(213,220)"/>
<path d="M0 0 C4.48365038 1.15293867 6.44173565 3.22974671 8.86328125 6.98046875 C13.95503832 16.02664884 14.88625088 27.63616181 12.30859375 37.69921875 C10.21816956 42.29115473 7.08851125 45.12934316 3 48 C-0.55353929 49.1845131 -3.27013478 49.26641894 -7 49 C-8.9375 48 -8.9375 48 -10 46 C-11.03491164 39.4455596 -9.25099386 36.04006851 -5.5078125 30.6875 C-1.88048758 24.22221621 -1.66666892 17.30088431 -1.4375 10.0625 C-1.12325581 1.12325581 -1.12325581 1.12325581 0 0 Z " fill="#A16E78" transform="translate(303,240)"/>
<path d="M0 0 C2.14646295 0.77638022 4.27155186 1.61367311 6.375 2.5 C17.02931067 6.89662058 26.20399599 5.21583098 37 2 C34.077103 8.73152037 27.60024555 13.25950056 21.05078125 16.22265625 C13.2139998 19.1931696 3.78477324 20.76597863 -4.3671875 18.27734375 C-8.61516785 16.29762461 -12.1944145 13.80111585 -15 10 C-15.07205808 6.46915408 -14.3788085 4.62585753 -12.5625 1.625 C-8.44231117 -0.98780267 -4.73951523 -0.77184568 0 0 Z " fill="#498497" transform="translate(312,321)"/>
<path d="M0 0 C0.99 0.33 1.98 0.66 3 1 C3.45692867 7.28276919 2.73737169 12.72846031 -1 18 C-3.01171875 18.59375 -3.01171875 18.59375 -5 19 C-6.12049773 20.39213354 -7.23911905 21.78582378 -8.34765625 23.1875 C-15.92799543 31.50257654 -26.67471425 37.22578281 -37.84375 38.40625 C-48.3808002 38.6591392 -56.36029003 37.42670969 -64.203125 30.1171875 C-67.27995827 26.49187526 -69.17470763 22.3613957 -71 18 C-71.55005366 27.97877911 -71.55005366 27.97877911 -68 37 C-68.33 37.66 -68.66 38.32 -69 39 C-73.86851273 33.24630313 -74.57650826 27.27186561 -74 20 C-73.25433002 15.24635388 -71.593107 13.44314117 -67.875 10.625 C-66.5932535 9.73553179 -65.30461025 8.8555816 -64 8 C-63.96261719 8.72445313 -63.92523438 9.44890625 -63.88671875 10.1953125 C-63.40007808 19.21982051 -63.40007808 19.21982051 -58.38671875 26.43359375 C-50.91579212 32.0807824 -42.08542607 32.14763277 -33 31 C-18.8586487 27.5776956 -11.1244786 19.00754049 -3.8828125 7.20703125 C-2.48763837 4.83060394 -1.17376019 2.48960715 0 0 Z " fill="#3371C6" transform="translate(356,316)"/>
<path d="M0 0 C13.11221348 8.89259159 20.37028375 20.71803616 25.60546875 35.43359375 C26.56487085 39.06166396 26.56487085 39.06166396 29 40 C29.33 39.01 29.66 38.02 30 37 C35.64263037 54.98588429 34.26244896 70.08479332 29 88 C28.67 88 28.34 88 28 88 C25.7357537 81.10952386 26.0865352 76.62578284 29 70 C28.34 70 27.68 70 27 70 C26.98598145 69.1478894 26.98598145 69.1478894 26.97167969 68.27856445 C26.58316691 49.43759932 24.06436052 32.69778823 10.3203125 18.65625 C9 17 9 17 9 14 C8.13375 13.62875 8.13375 13.62875 7.25 13.25 C4.51630719 11.73128177 2.90999004 10.50274557 1 8 C0.37373548 5.29826383 0.18564958 2.78474374 0 0 Z " fill="#0E8EAF" transform="translate(331,235)"/>
<path d="M0 0 C18.01259141 8.28104495 27.8849575 27.26644122 35.1640625 44.8046875 C36.66661668 48.97532855 37.34508207 52.51393306 37 57 C36.566875 56.360625 36.13375 55.72125 35.6875 55.0625 C34.08760823 52.73253997 34.08760823 52.73253997 31 52 C30.05200195 50.31689453 30.05200195 50.31689453 29.23828125 48.1328125 C28.92842285 47.33472168 28.61856445 46.53663086 28.29931641 45.71435547 C27.97366699 44.85986816 27.64801758 44.00538086 27.3125 43.125 C22.58533112 31.38895716 16.83578165 23.43764267 7.20703125 15.19921875 C2.92913817 10.93646866 1.35749548 5.75319514 0 0 Z " fill="#157594" transform="translate(326,222)"/>
<path d="M0 0 C1.2989839 0.90626784 2.58893167 1.82549537 3.875 2.75 C4.59429687 3.26046875 5.31359375 3.7709375 6.0546875 4.296875 C8.10462017 6.09159517 8.80160267 7.60320534 10 10 C10.99 10.33 11.98 10.66 13 11 C21.23336261 20.53996146 31 33.90952962 31 47 C28 46 28 46 27.05200195 44.31689453 C26.78347412 43.59614746 26.51494629 42.87540039 26.23828125 42.1328125 C25.92842285 41.33472168 25.61856445 40.53663086 25.29931641 39.71435547 C24.97366699 38.85986816 24.64801758 38.00538086 24.3125 37.125 C19.5638933 25.33573395 13.77808434 17.33889848 4.078125 9.08203125 C1.17412792 6.17257553 0.51303425 4.0187683 0 0 Z " fill="#C76369" transform="translate(329,228)"/>
<path d="M0 0 C2.375 0.6875 2.375 0.6875 5 2 C6.125 4.1875 6.125 4.1875 7 7 C7.495 8.051875 7.99 9.10375 8.5 10.1875 C11.50393189 17.2017572 12.28000544 24.43985322 12 32 C8.82121446 30.48308768 7.27793731 29.70529204 5.9609375 26.36328125 C5.76757812 25.35652344 5.57421875 24.34976563 5.375 23.3125 C4.59785788 19.66388362 3.82260442 16.21620659 2.4375 12.75 C0.90688979 8.88703136 -0.1433436 5.06911789 -1 1 C-0.67 0.67 -0.34 0.34 0 0 Z " fill="#8256F2" transform="translate(321,219)"/>
<path d="M0 0 C2.475 0.495 2.475 0.495 5 1 C5.67590188 4.37321776 6.33905518 7.74882242 7 11.125 C7.19078125 12.07632813 7.3815625 13.02765625 7.578125 14.0078125 C8.49756891 18.73638116 9.2609763 23.15562735 9 28 C7.68 28.33 6.36 28.66 5 29 C4.16214152 24.73004144 3.33048723 20.45889784 2.5 16.1875 C2.26152344 14.97255859 2.02304687 13.75761719 1.77734375 12.50585938 C1.55175781 11.34248047 1.32617188 10.17910156 1.09375 8.98046875 C0.88427734 7.90692139 0.67480469 6.83337402 0.45898438 5.72729492 C0 3 0 3 0 0 Z " fill="#8653FB" transform="translate(265,213)"/>
<path d="M0 0 C0.495 0.37125 0.99 0.7425 1.5 1.125 C0.80777344 1.3209375 0.11554688 1.516875 -0.59765625 1.71875 C-13.67387824 5.71569796 -25.16480652 12.58391494 -36.5 20.125 C-36.2924172 16.49230094 -35.61303212 15.23999324 -33.0234375 12.60546875 C-29.05393169 9.57922357 -24.63921452 7.52071063 -20.125 5.4375 C-19.31289062 5.04755859 -18.50078125 4.65761719 -17.6640625 4.25585938 C-4.9150167 -1.72025584 -4.9150167 -1.72025584 0 0 Z " fill="#508294" transform="translate(240.5,222.875)"/>
<path d="M0 0 C2.84429494 0.31603277 5.29173904 0.62556905 7.83984375 1.97265625 C10.45704294 3.217364 12.89533082 3.6492218 15.75 4.125 C16.73484375 4.29257812 17.7196875 4.46015625 18.734375 4.6328125 C19.85585938 4.81457031 19.85585938 4.81457031 21 5 C20.67 5.99 20.34 6.98 20 8 C16.53655473 9.15448176 13.71162274 9.20405092 10.0625 9.25 C8.22365234 9.28867187 8.22365234 9.28867187 6.34765625 9.328125 C2.82260892 8.98261278 1.42549837 8.53356513 -1 6 C-1.3125 3.375 -1.3125 3.375 -1 1 C-0.67 0.67 -0.34 0.34 0 0 Z " fill="#9C6F79" transform="translate(304,326)"/>
<path d="M0 0 C0.33 0 0.66 0 1 0 C4.1923731 13.85078007 0.91430464 27.67434551 -3 41 C-3.33 41 -3.66 41 -4 41 C-4.39386015 39.60937069 -4.7642584 38.21208608 -5.125 36.8125 C-5.33382813 36.03519531 -5.54265625 35.25789063 -5.7578125 34.45703125 C-6.05850458 31.40646163 -5.22436464 29.78574951 -4 27 C-3.60018583 25.13420053 -3.24615057 23.25802784 -2.9375 21.375 C-2.45135275 18.44204554 -1.94215266 15.82645799 -1 13 C-0.77548542 10.77425665 -0.59217122 8.54418481 -0.4375 6.3125 C-0.35371094 5.13300781 -0.26992188 3.95351563 -0.18359375 2.73828125 C-0.12300781 1.83464844 -0.06242187 0.93101562 0 0 Z " fill="#154D8A" transform="translate(363,282)"/>
<path d="M0 0 C1.2989839 0.90626784 2.58893167 1.82549537 3.875 2.75 C4.59429687 3.26046875 5.31359375 3.7709375 6.0546875 4.296875 C8.10462017 6.09159517 8.80160267 7.60320534 10 10 C10.99 10.33 11.98 10.66 13 11 C15.1519437 14.22791555 15.20086443 15.28400809 15 19 C1.0264382 7.59301077 1.0264382 7.59301077 0 0 Z " fill="#D65F65" transform="translate(329,228)"/>
<path d="M0 0 C3 1 3 1 4.5 3.625 C12.55737705 21.75409836 12.55737705 21.75409836 12 29 C9.7536419 26.7536419 9.55620832 25.76476395 8.8125 22.75 C7.30396111 17.36797324 4.95712589 12.64344621 2.3371582 7.73535156 C0.85922291 4.92755164 0 3.22719647 0 0 Z " fill="#1D6D8E" transform="translate(351,250)"/>
<path d="M0 0 C0.33 0 0.66 0 1 0 C0.0125055 26.75125788 0.0125055 26.75125788 -1 40 C-1.33 40 -1.66 40 -2 40 C-5.22506066 27.0217317 -2.96604319 12.79988876 0 0 Z " fill="#353D9C" transform="translate(138,284)"/>
<path d="M0 0 C-1.27721526 4.99275057 -3.17330957 7.57611908 -7 11 C-7.33 10.34 -7.66 9.68 -8 9 C-8.78375 9.825 -9.5675 10.65 -10.375 11.5 C-13 14 -13 14 -15 14 C-14.52400411 9.7548938 -12.18784481 8.02531723 -9.0625 5.3125 C-8.16660156 4.52488281 -7.27070313 3.73726563 -6.34765625 2.92578125 C-2.78093306 0 -2.78093306 0 0 0 Z " fill="#565BD3" transform="translate(223,271)"/>
<path d="M0 0 C4.95 0.33 9.9 0.66 15 1 C15 1.33 15 1.66 15 2 C17.97 2.495 17.97 2.495 21 3 C21 3.33 21 3.66 21 4 C20.31035156 4.01417969 19.62070312 4.02835937 18.91015625 4.04296875 C11.77192264 4.40526593 6.93071754 6.03154456 1 10 C2.33333333 7.33333333 3.66666667 4.66666667 5 2 C3.35 1.67 1.7 1.34 0 1 C0 0.67 0 0.34 0 0 Z " fill="#071B50" transform="translate(289,313)"/>
<path d="M0 0 C0.99 0 1.98 0 3 0 C2.48062019 5.19379811 0.988599 9.71371985 -2 14 C-4.75 15.5 -4.75 15.5 -7 16 C-7 12.39700049 -6.12650964 11.4424005 -4.0625 8.5625 C-2.01822577 5.70631544 -0.62582731 3.47769861 0 0 Z " fill="#0386A7" transform="translate(357,305)"/>
<path d="M0 0 C0.66 0.33 1.32 0.66 2 1 C0.98421875 1.49628906 -0.0315625 1.99257812 -1.078125 2.50390625 C-8.84506966 6.32869584 -16.38681687 10.26808626 -23.7421875 14.84765625 C-24.85980469 15.41806641 -24.85980469 15.41806641 -26 16 C-26.66 15.67 -27.32 15.34 -28 15 C-23.19778624 10.58164999 -18.23069376 7.93967643 -12.3125 5.25 C-11.45849609 4.85167969 -10.60449219 4.45335937 -9.72460938 4.04296875 C-6.50339881 2.55002748 -3.37095394 1.12365131 0 0 Z " fill="#0583A2" transform="translate(233,223)"/>
<path d="M0 0 C0.99 0.495 0.99 0.495 2 1 C1.01 1.495 1.01 1.495 0 2 C0 1.34 0 0.68 0 0 Z M-3 3 C-2.01 3.495 -2.01 3.495 -1 4 C-1.99 4.495 -1.99 4.495 -3 5 C-3 4.34 -3 3.68 -3 3 Z M-6 6 C-5.34 6.33 -4.68 6.66 -4 7 C-7.96 10.96 -11.92 14.92 -16 19 C-16.66 18.67 -17.32 18.34 -18 18 C-16.37860535 16.18415766 -14.75313264 14.3722838 -13.125 12.5625 C-12.66480469 12.04623047 -12.20460937 11.52996094 -11.73046875 10.99804688 C-8.2265625 7.11328125 -8.2265625 7.11328125 -6 6 Z " fill="#016286" transform="translate(208,152)"/>
<path d="M0 0 C0 5.61 0 11.22 0 17 C-0.33 17 -0.66 17 -1 17 C-1.33 12.71 -1.66 8.42 -2 4 C-3.98 4 -5.96 4 -8 4 C-5.87162321 1.87162321 -3.16570896 0 0 0 Z " fill="#131F64" transform="translate(274,242)"/>
<path d="M0 0 C2.04136395 -0.05451714 4.08315856 -0.09302485 6.125 -0.125 C7.83042969 -0.15980469 7.83042969 -0.15980469 9.5703125 -0.1953125 C13.05757767 0.00327891 15.7553862 0.7475199 19 2 C18.01 3.485 18.01 3.485 17 5 C14.69 4.34 12.38 3.68 10 3 C10 2.34 10 1.68 10 1 C6.7 1 3.4 1 0 1 C0 0.67 0 0.34 0 0 Z " fill="#037696" transform="translate(238,136)"/>
<path d="M0 0 C2.68666139 5.1814184 4.27625249 9.06057157 4 15 C0.56227273 11.56227273 0.02872226 7.89039016 -0.125 3.125 C-0.08375 2.09375 -0.0425 1.0625 0 0 Z " fill="#113869" transform="translate(359,264)"/>
<path d="M0 0 C2 1 2 1 2 1 Z M0 1 C0 1.99 0 2.98 0 4 C-2.97 4 -5.94 4 -9 4 C-7.14340032 0.28680064 -3.69365381 0.90017152 0 1 Z " fill="#357C94" transform="translate(245,219)"/>
<path d="M0 0 C1.32 0.33 2.64 0.66 4 1 C0.535 3.97 0.535 3.97 -3 7 C-1.125 2.25 -1.125 2.25 0 0 Z " fill="#1A4E92" transform="translate(288,323)"/>
<path d="M0 0 C2.35448165 2.55068845 2.98327924 3.71017358 3.1875 7.25 C3.125625 8.1575 3.06375 9.065 3 10 C-0.00617269 6.99382731 0.40414684 4.17618402 0 0 Z " fill="#175983" transform="translate(356,257)"/>
</svg>
